<svg version="1.1" viewBox="0 0 1200 1200"  xmlns="http://www.w3.org/2000/svg">
<path transform="translate(0)" d="m0 0h1200v1200h-1200z" fill='white'/>
<path transform="translate(413,574)" d="m0 0 4 1 12 18 12 16 12 14 12 13 12 11 16 12 18 11 19 9 23 7 23 3h15l18-2 23-6 19-8 16-9 14-10 11-9 4-2v-2l8-7 11-11 9-11 13-17 14-21 7 1 24 8 16 7 18 9-1 4-13 22-15 24-12 20-24 39-17 28-13 21-17 28-24 39-14 23-1 7 3 7 3 3 28 16 24 14 21 12 8 1 8-4 8-14 14-24 13-23 14-24 13-23 9-15 13-23 14-24 30-52 5-9h2l13 21 8 16 8 18 10 30 6 24 6 39 2 36v32l-2 36-6 48-8 44-2 7h-693l-7-36-4-24-5-44-1-14v-68l5-42 6-29 8-27 10-25 8-16 10-18 10-14 11-14 14-15 8-8 11-9 13-10 16-10 10-6 20-9 16-6z" fill="#017f84"/>
<path transform="translate(481,152)" d="m0 0h205l16 4 16 8 11 9 10 13 6 12 4 15v75l-3 11 1 4 4 7 1 4 1 15 9 14 6 17 2 12v20l-2 14-6 23-10 24-8 15-6 11-7 11-11 16-13 16-9 11-15 16-11 11-11 9-13 11-21 14-21 11-16 5h-12l-16-5-16-8-12-7-17-12-13-11-10-9-18-18-13-14-11-14-14-19-8-13-7-11-11-23-8-21-5-21-2-15 1-22 5-19 9-16 2-2 1-16 3-7 3-4-1-7-2-8v-72l4-17 7-14 8-10 8-8 13-8 10-4z"/>
<path transform="translate(972,345)" d="m0 0 9 1 5 4 10 17 7 15 6 18 2 14v12l-3 16-7 16-10 14-12 14-11 12-7 9-6 10-4 11-2 10-1 16 2 8 1 3v8l-6 11-16 28-11 19-7 12 1 4 16 24 12 22 9 20 7 19 6 20 6 25 6 39 2 33v48l-2 31-6 48-9 49-4 17-4 6-5 3h-725l-6-4-3-6-7-33-7-41-5-42-2-34v-42l2-32 5-35 7-30 9-29 10-24 13-25 11-17 10-14 12-14 14-15 10-9 16-13 15-10 15-9 16-8 15-7 19-7 23-6 6-1h8l5 3 5 6 10 16 12 17 9 11 11 12 4 5 8 7 13 11 10 7 16 9 15 6 18 5 7 1h28l18-4 15-5 19-10 17-12 15-13 11-11 9-11 13-17 10-15 8-13 5-4 2-1h8l15 3 23 7 21 9 24 12 9-14 17-28 9-15 10-17 16-28 15-26 10-17 16-28 30-52 5-4zm-559 229-26 8-18 8-14 7-15 9-15 11-10 8-13 12-9 9-9 11-13 17-12 20-8 16-7 16-6 16-7 24-6 29-5 42v68l3 32 4 34 7 38 3 14h693l4-17 6-34 6-48 2-36v-32l-2-36-7-44-8-29-7-20-8-18-8-16-11-18-2-3h-2l-14 25-10 17-12 21-15 26-12 21-13 22-16 28-14 24-16 28-12 20-7 3-8-1-23-13-24-14-26-15-4-4-2-6 1-7 12-20 13-21 8-13 28-46 13-21 12-20 10-16 14-23 40-65v-3l-16-8-13-6-19-7-13-4-5 1-10 16-13 17-9 11-11 12-9 9-2 1v2l-4 2-12 10-18 12-16 8-14 6-23 6-18 2h-15l-23-3-23-7-23-11-18-12-14-11-17-16-9-10-9-11-14-19-7-11-3-4z"/>
<path transform="translate(448,312)" d="m0 0h270l5 6 1 2 1 16 5 10 6 9 5 13 1 8v13l-3 17-6 20-6 14-1 1h-61l-1-23-4-10-2-4-12-6h-124l-10 5-6 7-2 5-1 7-1 19h-61l-8-19-5-17-2-11v-22l4-15 7-11 3-4 2-5 1-17z" fill="#017f84"/>
<path transform="translate(486,180)" d="m0 0h195l15 4 9 6 5 5 6 8 4 10 1 4v66l-1 1h-273l-1-3v-60l3-13 5-9 8-9 10-6 8-3z" fill="#017f84"/>
<path transform="translate(879,552)" d="m0 0 12 6 24 14 2 1-1 5-14 24-12 21-11 19-30 52-11 19-15 26-12 21-10 17-12 21-15 26-14 24-9 15-6 11-14-7-24-14-8-5 2-6 13-21 16-26 14-23 16-26 28-46 11-18 13-21 14-23 10-16 9-15 16-26 11-18z" fill="#017f84"/>
<path transform="translate(458,469)" d="m0 0h44l2 7 4 11 7 10 8 6 11 5 5 1h90l14-5 10-8 7-10 5-16 1-1h44l-2 5-13 18-13 16-7 8-14 15-8 8-11 9-8 7-17 12-18 10-14 5-9-2-10-4-16-9-15-11-11-9-12-11-2-1v-2l-4-2-4-5-12-12-9-11-11-14-11-16z" fill="#017f84"/>
<path transform="translate(531,425)" d="m0 0h105l1 1v42l-3 8-5 4-5 2h-81l-6-3-5-5-1-2z" fill="#017f84"/>
<path transform="translate(974,389)" d="m0 0 2 3 4 12 1 6v16l-2 8-6 14-9 12-11 12-7 8-12 16-6 12-6 20-2 14-5-2-20-11-1-3 10-17 14-24 14-25 28-48 13-22z" fill="#017f84"/>
</svg>
